PathFileType	4	(X/Y/Z)	Run_300 01
DataRate	CameraRate	NumFrames	NumMarkers	Units	OrigDataRate	OrigDataStartFrame	OrigNumFrames
100	100	6	42	mm	100	73	128
Frame#	Time	LASI			RASI			LPSI			RPSI			RTH1			RTH2			RTH3			LTH1			LTH2			LTH3			RTB1			RTB2			RTB3			LTB1			LTB2			LTB3			RCAL			RTOE			RMT5			LCAL			LTOE			LACR			RACR			CLAV			C7			RUA1			RUA2			RUA3			RLEL			RMEL			LUA1			LUA2			LUA3			LLEL			LMEL			RFAsuperior			RFAradius			RFAulna			LFAsuperior			LFAradius			LFAulna			LMT5		
		X1	Y1	Z1	X2	Y2	Z2	X3	Y3	Z3	X4	Y4	Z4	X5	Y5	Z5	X6	Y6	Z6	X7	Y7	Z7	X8	Y8	Z8	X9	Y9	Z9	X10	Y10	Z10	X11	Y11	Z11	X12	Y12	Z12	X13	Y13	Z13	X14	Y14	Z14	X15	Y15	Z15	X16	Y16	Z16	X17	Y17	Z17	X18	Y18	Z18	X19	Y19	Z19	X20	Y20	Z20	X21	Y21	Z21	X22	Y22	Z22	X23	Y23	Z23	X24	Y24	Z24	X25	Y25	Z25	X26	Y26	Z26	X27	Y27	Z27	X28	Y28	Z28	X29	Y29	Z29	X30	Y30	Z30	X31	Y31	Z31	X32	Y32	Z32	X33	Y33	Z33	X34	Y34	Z34	X35	Y35	Z35	X36	Y36	Z36	X37	Y37	Z37	X38	Y38	Z38	X39	Y39	Z39	X40	Y40	Z40	X41	Y41	Z41	X42	Y42	Z42	

73	  0.730000	736.104277	1064.347720	-439.603606	738.991620	1042.803181	-193.113750	555.456019	1136.272155	-354.287850	562.268291	1135.810907	-268.920092	648.943655	913.964346	-136.885226	661.355052	769.774214	-160.962018	554.651099	689.859931	-170.380623	689.025217	948.478651	-503.141851	794.138480	860.371436	-478.219693	762.543115	705.319509	-463.789640	472.265558	450.408189	-228.614504	366.160255	415.333063	-181.303574	314.897018	325.892219	-241.101738	859.323965	492.199989	-396.214134	804.603986	409.286990	-457.340967	849.059696	287.110393	-377.721395	141.854130	348.291898	-266.953649	246.346458	139.879092	-277.882654	190.669359	137.848205	-202.685145	729.278732	138.435177	-350.951181	958.873968	133.406000	-349.825489	680.659708	1594.226471	-479.160419	707.016715	1568.028660	-148.276380	768.702165	1537.515553	-302.375335	630.782212	1609.484136	-325.090582	663.222640	1458.422395	-62.564031	586.568807	1384.809003	-76.300165	633.289028	1346.422812	-28.849223	625.967845	1251.187006	 -3.441225	585.550420	1229.019991	-73.846984	591.283641	1541.462924	-570.709242	503.520251	1496.681325	-550.672647	515.672160	1463.381022	-624.397509	470.126360	1391.148792	-667.285798	415.779806	1385.202056	-609.619238	694.573346	1211.369117	-22.492645	866.563637	1210.226917	-137.542277	851.769548	1146.306648	-108.763690	525.449606	1281.212232	-637.060760	620.612573	1202.799058	-534.657691	568.633590	1164.487177	-555.076385	930.857469	 88.589449	-424.342060	
74	  0.740000	736.320546	1060.751086	-440.704431	740.368232	1042.972772	-194.096392	555.648703	1132.926645	-354.576796	563.034471	1133.549041	-269.890387	652.360950	913.406456	-136.673667	666.893686	768.367446	-160.173838	561.958548	687.022326	-169.455553	688.322902	944.357902	-503.379469	790.363672	852.684333	-479.017841	755.168925	698.836147	-462.425447	474.839445	450.563317	-226.149937	366.332765	422.422018	-179.766551	310.231080	335.976287	-239.112077	855.883383	487.908948	-394.976372	802.446260	403.393375	-454.903159	854.172760	282.824561	-377.227930	139.613176	368.089770	-268.095322	232.359403	153.744913	-272.395092	174.864136	156.746338	-198.355022	740.250066	130.830558	-345.954337	969.802877	130.733164	-354.731479	680.874189	1591.413570	-481.871604	706.319376	1566.892669	-150.267141	768.447134	1535.753020	-304.221728	630.461559	1608.096725	-327.739756	661.934797	1457.275562	-64.082998	584.447292	1384.551592	-77.696053	631.154570	1346.047922	-29.969058	622.865926	1251.060037	 -4.362024	582.203792	1229.109383	-74.498912	592.042528	1537.783674	-573.685464	504.288716	1492.311857	-552.839036	516.677874	1458.874615	-626.536393	472.244835	1385.676300	-669.393156	417.956730	1379.067673	-611.776106	690.966974	1209.947626	-23.031796	862.831419	1204.277969	-138.414654	846.831968	1141.061578	-108.602946	529.097358	1276.761174	-638.383227	625.321560	1199.801063	-535.773242	573.413627	1160.979421	-554.940295	939.140621	 86.476428	-428.689944	
75	  0.750000	736.279062	1056.139826	-441.831675	741.510445	1041.943034	-194.657044	555.590095	1128.556598	-354.899390	562.914011	1129.788273	-270.775354	655.711303	911.407486	-136.293498	672.941590	765.834274	-158.522371	570.339032	682.651027	-168.225861	687.524507	939.213801	-503.485660	786.407661	844.508873	-479.542018	748.718848	692.344588	-461.337690	479.388566	449.736508	-223.281599	368.510390	429.331714	-178.159824	308.027681	345.720094	-236.943412	852.090616	483.323968	-394.338986	798.355945	397.867586	-452.643373	855.396682	278.337480	-377.219542	140.268232	387.416726	-269.901393	220.924697	167.894430	-265.486328	161.989419	176.871470	-192.380933	745.015078	124.656134	-341.726994	974.197216	126.409002	-360.073560	680.961670	1587.327823	-484.636402	705.135034	1564.828443	-152.310568	767.995062	1532.898239	-306.026388	629.944699	1605.595184	-330.534338	659.819748	1455.619444	-65.524024	581.717057	1383.441992	-79.437562	628.258826	1344.713440	-31.326874	618.940858	1249.991456	 -5.371549	578.188979	1228.334798	-75.447503	593.151288	1532.222972	-577.221086	505.600427	1485.709428	-556.255123	518.901435	1451.845834	-629.713673	476.108697	1377.384972	-671.990519	421.453749	1370.282952	-615.147737	686.465281	1207.433413	-23.296043	858.392690	1196.544707	-137.976514	840.531743	1133.634044	-107.747953	534.449627	1269.706765	-640.026092	631.456530	1194.895008	-536.724993	579.763221	1155.343979	-554.643841	940.957702	 82.095017	-433.113955	
76	  0.760000	735.855415	1050.575142	-442.814845	742.308536	1039.803844	-194.470465	555.154032	1123.229927	-355.085939	561.565874	1125.042479	-270.853880	659.171074	907.823058	-135.566326	679.484870	762.401544	-156.014738	579.758776	676.923851	-166.337032	686.463515	933.197474	-503.375697	782.858158	836.513244	-480.141298	743.754188	686.123363	-460.806280	485.801422	448.144598	-219.805692	372.848542	435.874565	-176.285961	308.470561	355.006255	-234.637129	847.892773	477.945017	-394.319189	793.119494	392.057432	-451.081644	853.277978	272.963169	-377.483842	143.644415	405.857156	-271.135091	212.633063	182.339418	-259.186238	153.249130	197.122141	-186.153173	744.193942	119.315402	-338.563434	972.874835	119.625538	-363.444985	680.842984	1581.908088	-487.385171	703.485729	1561.778659	-154.375898	767.380022	1529.028060	-307.710563	629.251564	1601.893782	-333.370974	656.890972	1453.420686	-67.054718	578.499909	1381.555781	-81.466147	624.592392	1342.417254	-32.962294	614.258745	1248.030595	 -6.407796	573.517729	1226.757736	-76.580945	594.551157	1524.772103	-581.160828	507.420621	1476.952821	-560.845207	522.305961	1442.364405	-633.769762	481.480542	1366.538115	-675.135841	426.173768	1359.094409	-619.507122	681.029988	1203.823058	-23.284745	853.219543	1187.103024	-136.244752	833.008166	1124.441579	-106.200770	541.247178	1260.257652	-641.908669	638.814362	1188.344749	-537.383112	587.583437	1147.822220	-554.412848	937.677583	 74.523626	-435.344512	
77	  0.770000	735.004376	1044.075902	-443.531133	742.727987	1036.603156	-193.831065	554.287202	1116.977472	-355.006134	559.638767	1119.431335	-270.098658	662.702740	902.905851	-134.445230	686.472941	758.226842	-152.877100	590.029101	670.069543	-163.686440	685.031083	926.523213	-503.061432	780.205779	829.204718	-481.080494	740.130080	679.919652	-460.605590	493.954379	445.983552	-215.824784	379.570222	441.620784	-174.060341	311.582505	363.677718	-232.251517	843.237160	471.267001	-394.527865	787.537889	385.437691	-450.588667	848.259354	266.200273	-377.635022	149.739982	423.200071	-271.142658	207.924205	196.752419	-254.765762	149.054801	216.320641	-180.989785	738.065614	114.819045	-336.316496	966.540531	109.898820	-363.453983	680.555373	1575.149039	-490.158195	701.447723	1557.759465	-156.407868	766.611007	1524.216737	-309.216415	628.452547	1596.988894	-336.184677	653.333055	1450.453871	-68.832592	574.892879	1378.915240	-83.672167	620.282048	1339.276437	-34.727393	608.870763	1245.227834	 -7.431021	568.251378	1224.392513	-77.754969	596.264604	1515.518593	-585.339560	509.766047	1466.225701	-566.398924	526.831800	1430.641686	-638.424467	488.183386	1353.548524	-678.992811	432.120402	1345.653612	-624.594867	674.658667	1199.025196	-23.040034	847.317498	1175.723901	-133.525347	824.360378	1113.732322	-104.014973	549.304308	1248.744606	-643.909319	647.186644	1180.353693	-537.589236	596.787648	1138.692392	-554.389778	929.599264	 64.792895	-434.762379	
78	  0.780000	733.907789	1036.704641	-443.986854	742.839941	1032.380315	-193.434383	553.173574	1109.849263	-354.667188	558.381160	1112.518556	-269.276698	666.115622	897.065685	-133.115621	693.929252	753.280524	-149.438360	600.962815	662.289862	-160.406971	683.332817	919.282570	-502.548179	778.559698	822.603149	-482.042269	737.454091	673.219595	-460.444512	503.776079	443.272326	-211.648826	388.759987	446.136891	-171.461787	317.296065	371.521256	-229.825457	838.085397	463.005169	-394.356276	781.824267	377.748191	-450.863583	839.854938	257.855254	-376.911043	158.553714	439.256661	-269.920701	206.877984	210.619702	-252.247590	149.092356	233.592292	-177.527184	725.715935	110.992486	-334.476258	954.711075	 98.174724	-360.573840	680.222888	1567.114513	-492.985992	699.105818	1552.811590	-158.379650	765.682841	1518.508815	-310.549562	627.619820	1590.953004	-338.940075	649.432991	1446.602911	-70.808767	570.941119	1375.478314	-85.976998	615.527701	1335.429686	-36.405820	602.840249	1241.640970	 -8.404164	562.473604	1221.248519	-78.856101	598.359438	1504.636486	-589.613321	512.659734	1453.743914	-572.598634	532.393662	1416.958002	-643.372334	496.120995	1338.839936	-683.534493	439.364802	1330.077642	-630.164400	667.441191	1193.081214	-22.553330	840.622259	1162.319918	-130.141312	814.606939	1101.568318	-101.215321	558.548687	1235.549376	-645.922754	656.398641	1171.125627	-537.216182	607.293906	1128.227977	-554.570939	915.732620	 55.655488	-432.654884	
